<?xml version="1.0" encoding="UTF-8"?><svg id="Layer_1" xmlns="http://www.w3.org/2000/svg" viewBox="0 0 23.64 3.76"><defs><style>.cls-1{fill:#90c03f;font-family:KohinoorTelugu-Bold, 'Kohinoor Telugu';font-size:.55px;font-weight:700;}.cls-2{fill:#58c7f1;}.cls-3{fill:#92c648;}.cls-4{fill:#fcfdfb;}</style></defs><path class="cls-4" d="M.54.04c-.28,1.31-.35,3.05.93,3.04,1.2-.02,1.17-1.63.97-2.92-.21-.05-.38-.05-.61,0,.25.93.31,2.28-.35,2.28-.58,0-.6-1.22-.34-2.22.02-.06-.1-.15-.09-.16h2.94s-.5.29-.5.29c-.59.59-.69,1.53-.27,2.23.18.31.5.47.79.5.38.04.71-.07.98-.4.3.43.89.39,1.54.3l-.12-1.72c-.04-.54-.79-.66-1.22-.41-.16.09-.18.2-.21.32s.18.33.26.26c.13-.16.21-.25.36-.27.19-.02.38.11.35.33-.5.1-.91.42-1.23.8-.25.29-.76.13-.95-.15-.33-.47-.26-1.15.21-1.47.13-.09.29-.1.41-.08.1.01.17.2.27.27.17.12.37-.03.39-.18.05-.42-.22-.43-.47-.62h7.22c-.45.22-.63.61-.86.99-.01-.31-.02-.8-.45-.87-.49-.08-1.01-.04-1.51,0-.15.98-.14,1.89-.04,2.83.27.05.49.06.73.01-.05-.25-.25-.72-.04-.91.38-.34.86-.49,1.23-.87l-.05.85c-.04.67.48,1.05,1.14,1.03.43-.01.82-.02,1.09-.47.28.43.66.46,1.09.47.62.02,1.09-.31,1.14-.96.05-.6-.16-1.27-.54-1.75l-.39-.33h4.09c-.06.11-.32.07-.42.17-.2.18-.22.52-.2.8.33-.18.52-.42.87-.42-.15.84-.27,1.61-.09,2.39.24.04.46.05.71,0-.16-.78-.35-1.61-.03-2.38.14-.12.41.17.5.23.19,0,.35-.5.19-.56l-.53-.23h4.21v3.71H0V.04h.54ZM17.4,1.1c.17-.32.07-.93-.34-.94h-1.52c-.14.98-.18,1.88-.04,2.83l.72.02c-.03-.29-.16-.54-.11-.8.07-.36.95-.47,1.29-1.11ZM7.62,2.99c.24.05.4.04.6-.02.12-.84.21-2.03-.3-2.18-.18-.05-.36,0-.54.11-.08-.24-.22-.28-.42-.25-.43.07-.32,1.4-.27,2.31.19.08.42.08.58,0-.17-.81-.18-1.76.27-1.77.41,0,.29,1.03.08,1.79ZM22.99,2.58c.22-.45.19-.97,0-1.39-.18-.36-.51-.51-.88-.46-.33.04-.57.31-.69.67-.15-.42-.42-.65-.76-.67-.37-.03-.69.14-.84.52-.18.44-.19.95.03,1.38.18.33.52.51.87.45.31-.05.55-.28.7-.65.12.34.37.6.71.65s.7-.11.88-.48Z"/><path class="cls-4" d="M10.86,1.21c0-.12.05-.12.08-.18,0,.16-.07.12-.08.18Z"/><path class="cls-4" d="M12.53,2.13c-.08.26-.36.3-.54.3s-.45-.05-.52-.27c-.21-.65.19-1.51.52-1.52s.73.87.54,1.49Z"/><path class="cls-4" d="M14.64,2.15c-.22.36-.88.4-1.05,0-.23-.51.11-1.49.51-1.5.35,0,.69.81.54,1.49Z"/><path class="cls-3" d="M1.04.04c.06,0,.11.1.09.16-.26,1-.25,2.22.34,2.22.67,0,.61-1.35.35-2.28.23-.04.4-.04.61,0,.21,1.3.24,2.91-.97,2.92C.19,3.1.26,1.35.54.04c.17,0,.44,0,.5,0Z"/><path class="cls-3" d="M7.62,2.99c.21-.76.32-1.8-.08-1.79-.45.01-.44.95-.27,1.77-.16.08-.38.08-.58,0-.04-.91-.16-2.24.27-2.31.2-.03.35,0,.42.25.17-.11.36-.16.54-.11.5.14.42,1.34.3,2.18-.2.06-.36.07-.6.02Z"/><path class="cls-3" d="M4.58.04c.17.05.52.19.47.62-.02.15-.22.3-.39.18-.1-.07-.17-.26-.27-.27-.12-.02-.28,0-.41.08-.47.32-.54,1-.21,1.47.2.28.7.44.95.15.32-.37.73-.69,1.23-.8.03-.21-.16-.35-.35-.33-.14.02-.22.11-.36.27-.08.07-.28-.14-.26-.26.02-.12.05-.24.21-.32.43-.24,1.19-.13,1.22.41l.12,1.72c-.65.09-1.24.13-1.54-.3-.27.33-.6.44-.98.4-.29-.03-.61-.19-.79-.5-.42-.71-.33-1.65.27-2.23,0,0,.16-.23.5-.29s.42-.05.6,0ZM5.95,1.94c-.25-.06-.37.06-.45.16s-.07.27.03.38c.07.08.27.16.38.05.13-.13.1-.42.03-.6Z"/><path class="cls-4" d="M5.95,1.94c.07.18.09.47-.03.6-.11.11-.31.03-.38-.05-.1-.11-.11-.27-.03-.38s.19-.22.45-.16Z"/><path class="cls-3" d="M19.43.04c.23,0,.53.23.53.23.16.07,0,.56-.19.56-.1-.06-.36-.35-.5-.23-.32.77-.14,1.6.03,2.38-.25.04-.46.04-.71,0-.17-.78-.05-1.55.09-2.39-.35,0-.69.51-.87.42s0-.62.2-.8c.1-.09.22-.17.42-.17h1.01Z"/><path class="cls-3" d="M22.99,2.58c-.18.37-.54.54-.88.48s-.58-.31-.71-.65c-.16.37-.4.6-.7.65-.35.06-.69-.11-.87-.45-.22-.42-.21-.94-.03-1.38.15-.37.47-.54.84-.52.35.02.61.25.76.67.12-.36.36-.62.69-.67.38-.05.71.1.88.46.2.41.22.94,0,1.39ZM22.55,2.31c.18-.3.17-.67.02-.96-.08-.15-.25-.21-.38-.19-.31.04-.49.55-.31,1.04.06.16.19.25.3.26s.28,0,.37-.15ZM20.92,1.39c-.07-.16-.21-.23-.35-.23-.39,0-.57.59-.35,1.08.07.16.21.22.35.22.39,0,.57-.59.35-1.07Z"/><path class="cls-4" d="M22.55,2.31c-.09.15-.25.16-.37.15s-.25-.1-.3-.26c-.18-.48,0-.99.31-1.04.13-.02.3.05.38.19.15.28.16.65-.02.96Z"/><path class="cls-4" d="M20.92,1.39c.21.48.04,1.06-.35,1.07-.14,0-.28-.07-.35-.22-.22-.48-.04-1.08.35-1.08.14,0,.28.07.35.23Z"/><path class="cls-2" d="M12.2.04c.41.22.65.54.84,1.06.2-.52.63-1.01.87-1.06s.27-.07.42,0,.39.33.39.33c.39.49.59,1.15.54,1.75-.05.65-.52.99-1.14.96-.43-.02-.81-.04-1.09-.47-.26.45-.66.46-1.09.47-.67.02-1.14-.55-1.14-1.03s.18-.91.24-1.13.55-.84.76-.88.39,0,.39,0ZM12.53,2.13c.2-.62-.2-1.5-.54-1.49s-.72.87-.52,1.52c.07.22.35.27.52.27s.45-.03.54-.3ZM14.64,2.15c.15-.68-.2-1.5-.54-1.49-.4.01-.74.99-.51,1.5.18.39.84.35,1.05,0Z"/><path class="cls-2" d="M10.94,1.03s-.01.08-.08.18-.85.53-1.23.87c-.21.19-.01.66.04.91-.24.05-.47.04-.73-.01-.1-.94-.1-1.85.04-2.83.49-.03,1.04-.15,1.51,0,.55.19.45.87.45.87ZM10.3.85c.05-.24-.22-.31-.34-.31s-.32,0-.39.15c-.12.26-.16.57-.07.84.34-.09.73-.35.8-.68Z"/><path class="cls-4" d="M13.92.05c-.45.21-.67.54-.87,1.06-.19-.53-.43-.85-.84-1.06h1.72Z"/><path class="cls-2" d="M17.4,1.1c-.34.64-1.22.75-1.29,1.11-.05.26.07.51.11.8l-.72-.02c-.15-.95-.1-1.85.04-2.84,0,0,1.09-.2,1.52.01s.51.62.34.94ZM16.84.76c-.05-.32-.6-.28-.7-.09-.14.28-.17.57-.07.85.33-.09.82-.38.77-.76Z"/><path class="cls-4" d="M16.84.76c.05.38-.44.67-.77.76-.1-.28-.07-.57.07-.85.1-.2.65-.24.7.09Z"/><path class="cls-4" d="M10.3.85c-.07.33-.46.59-.8.68-.09-.28-.05-.58.07-.84.07-.16.27-.15.39-.15s.39.08.34.31Z"/><text class="cls-1" transform="translate(22.85 .51)"><tspan x="0" y="0">TM</tspan></text></svg>