<?xml version="1.0" encoding="UTF-8"?><svg id="Layer_1" xmlns="http://www.w3.org/2000/svg" viewBox="0 0 24 24"><defs><style>.cls-1{fill:#231f20;}.cls-2{fill:#47c1f0;}.cls-3{fill:#90c03f;}</style></defs><g id="Layer_3"><path class="cls-3" d="M23.27,15.07v.06c-.02,4.06-2.99,7.03-4.25,8.31-.32.32-.74.47-1.15.47s-.81-.16-1.11-.46c-.62-.62-.65-1.58-.03-2.21,1.04-1.04,3.37-3.37,3.38-6.12v-.03c0-.11,0-.24-.02-.38-.17-1.82-.93-2.77-2.1-2.77-.95,0-1.53.79-2.34,1.49-1.11.96-2.24,1.96-3.68,1.96-1.2,0-2.26-.54-3.29-1.06-1-.49-1.93-.96-2.92-.96-1.17,0-1.85.3-1.86,1.86v.06c.17,3.14,3.73,5.58,3.76,5.59.73.49.93,1.47.44,2.2-.49.73-1.45.92-2.18.44-.21-.14-4.98-3.35-5.18-8.14v-.09c0-.21,0-.4.02-.58.05-2.02.63-3.87,1.69-5.28.17-.25.38-.47.58-.7,1.09-1.14,2.43-1.77,3.81-1.77,1.77,0,2.73,1,3.37,1.64.58.6.82.81,1.45.81.71,0,1.12-.27,1.91-.81.85-.57,1.99-1.34,3.78-1.49.19-.02.4-.03.62-.03,1.22,0,2.2.43,2.97,1.11,1.67,1.53,2.32,4.33,2.34,6.86v.02Z"/><path class="cls-2" d="M12.89,6.34c.22,1.09,1.55,1.82,1.55,2.99s-.79,2.23-2.62,2.45c-.25.02-.32.03-.33.03-.76,0-1.48-.49-1.53-1.49,0,0,.06-4.24-.17-5.25s-2.09-2.18-3.03-2.7c-1.34-.76-.27-2.83,1.12-2.16,1.49.84,2.83,1.39,3.79,2.69.9-.74,2.35-1.37,2.77-.28.11.44-.14.87-.55,1.01-.44.21-.91.42-1.04.9s-.02,1.41.06,1.82h-.02Z"/><path class="cls-1" d="M11.7,19.52c0,.84-.68,1.52-1.52,1.52s-1.5-.68-1.5-1.52.68-1.52,1.5-1.52,1.52.68,1.52,1.52Z"/><path class="cls-1" d="M16.17,18.92c0,.84-.68,1.53-1.5,1.53s-1.5-.7-1.5-1.53.66-1.52,1.5-1.52,1.5.68,1.5,1.52Z"/></g></svg>